<svg width="120" height="120" viewBox="0 0 120 120" fill="none" xmlns="http://www.w3.org/2000/svg">
<path d="M115.161 60.4838C115.161 30.2864 90.6815 5.8064 60.4841 5.8064C30.2866 5.8064 5.80664 30.2864 5.80664 60.4838C5.80664 90.6812 30.2866 115.161 60.4841 115.161C90.6815 115.161 115.161 90.6812 115.161 60.4838Z" fill="#E54E1D"/>
<path d="M115.161 60.4838C115.161 30.2864 90.6815 5.8064 60.4841 5.8064C30.2866 5.8064 5.80664 30.2864 5.80664 60.4838C5.80664 90.6812 30.2866 115.161 60.4841 115.161C90.6815 115.161 115.161 90.6812 115.161 60.4838Z" stroke="white" stroke-width="0.5"/>
<path d="M43.1449 65.9661C46.9663 65.9661 50.0503 64.2737 50.0503 59.7975V59.279C50.0503 57.0683 48.8768 55.8675 47.2665 55.2669C48.6312 54.639 49.3679 52.7829 49.3679 50.7909C49.3679 47.1059 46.748 45.8506 43.2813 45.8506C38.5868 45.8506 37.059 48.6069 37.059 50.7359C37.059 52.0461 37.3042 52.4558 39.2693 52.4558C40.8521 52.4558 41.2619 51.8277 41.2619 50.8997C41.2619 49.8352 41.9441 49.5081 43.2813 49.5081C44.4008 49.5081 45.3014 49.8903 45.3014 51.4732C45.3014 53.6841 44.2094 53.8203 43.1724 53.8203C42.2443 53.8203 41.9441 54.639 41.9441 55.4583C41.9441 56.277 42.2443 57.0957 43.1724 57.0957C44.6735 57.0957 45.793 57.4503 45.793 59.279V59.7975C45.793 61.5717 45.1375 62.2542 43.2819 62.2542C42.0537 62.2542 40.8527 61.954 40.8527 60.6712C40.8527 59.6337 40.4157 59.2515 38.6695 59.2515C37.1677 59.2515 36.6494 59.5794 36.6494 60.8076C36.6494 63.1004 38.4506 65.9661 43.1449 65.9661Z" fill="white"/>
<path d="M60.0392 49.5625C61.322 49.5625 62.414 50.1085 62.414 51.1455C62.414 52.4006 63.4509 52.701 64.6247 52.701C65.9894 52.701 66.6173 52.2919 66.6173 50.9816C66.6173 48.7165 64.7887 45.8506 60.1762 45.8506C56.2454 45.8506 53.2158 47.5976 53.2158 52.2919V59.5248C53.2158 64.2193 56.1636 65.9661 59.9304 65.9661C63.6967 65.9661 66.6173 64.2193 66.6173 59.5248V59.279C66.6173 54.9123 63.9969 53.5476 60.8854 53.5476C59.5758 53.5476 58.3474 53.7928 57.4737 54.748V52.2919C57.4737 50.4083 58.4294 49.5625 60.0392 49.5625ZM59.9029 56.8225C61.4589 56.8225 62.3594 57.5868 62.3594 59.5794V59.825C62.3594 61.7082 61.4589 62.5269 59.9304 62.5269C58.4018 62.5269 57.4737 61.7082 57.4737 59.825V59.3336C57.4737 57.5322 58.4294 56.8225 59.9029 56.8225Z" fill="white"/>
<path d="M76.6068 65.9661C80.3731 65.9661 83.3208 64.2193 83.3208 59.5242V52.2919C83.3208 47.597 80.3731 45.8506 76.6068 45.8506C72.84 45.8506 69.9199 47.597 69.9199 52.2919V59.5242C69.9199 64.2193 72.84 65.9661 76.6068 65.9661ZM74.1778 52.2919C74.1778 50.4086 75.0784 49.5625 76.6068 49.5625C78.1355 49.5625 79.063 50.4086 79.063 52.2919V59.5248C79.063 61.408 78.1355 62.2542 76.6068 62.2542C75.0784 62.2542 74.1778 61.408 74.1778 59.5248V52.2919Z" fill="white"/>
<path d="M88.4926 45.8318C92.0568 45.8318 94.9568 42.9318 94.9568 39.3674C94.9568 35.8033 92.0568 32.9033 88.4926 32.9033C84.9277 32.9033 82.0283 35.8033 82.0283 39.3674C82.0283 42.9318 84.9277 45.8318 88.4926 45.8318ZM88.4926 37.2129C89.6805 37.2129 90.6474 38.1796 90.6474 39.3674C90.6474 40.5554 89.6805 41.5222 88.4926 41.5222C87.3041 41.5222 86.3379 40.5554 86.3379 39.3674C86.3379 38.1796 87.3041 37.2129 88.4926 37.2129Z" fill="white"/>
<path d="M90.2881 53.9486C89.3077 53.2746 87.9661 53.522 87.2916 54.5029C86.617 55.4832 86.8652 56.8249 87.8455 57.4992C89.9525 58.9487 92.4645 61.2728 92.4645 64.1128C92.4645 66.6895 90.3183 69.3587 86.4202 71.6302C82.1579 74.1132 76.0605 75.9587 69.2519 76.8258C68.0712 76.9762 67.2363 78.0552 67.3867 79.2359C67.5252 80.3238 68.4527 81.1183 69.5211 81.1183C69.6121 81.1183 69.704 81.1127 69.7967 81.1009C77.2719 80.1488 83.7705 78.1613 88.5895 75.3533C93.9438 72.2341 96.7741 68.347 96.7741 64.1128C96.7741 60.3823 94.5312 56.8675 90.2881 53.9486Z" fill="white"/>
<path d="M55.7773 72.2854C54.9362 71.4438 53.5715 71.4438 52.7303 72.2854C51.8886 73.1265 51.8886 74.4912 52.7303 75.3324L54.6067 77.2092C47.7172 76.7184 41.3876 75.2896 36.3975 73.0642C30.7655 70.5516 27.5351 67.2891 27.5351 64.1126C27.5351 61.5769 29.6258 58.9412 33.4219 56.691C34.446 56.084 34.7837 54.7625 34.1771 53.739C33.57 52.7149 32.2486 52.3772 31.2246 52.9838C24.6133 56.9025 23.2256 61.1985 23.2256 64.1126C23.2256 69.1392 27.2802 73.7157 34.6422 77C40.2373 79.4954 47.316 81.0688 54.9563 81.5507L52.7303 83.7773C51.8886 84.6185 51.8886 85.9832 52.7303 86.8243C53.1513 87.2451 53.7023 87.4555 54.2537 87.4555C54.8053 87.4555 55.3569 87.2451 55.7773 86.8243L61.5232 81.0783C62.3649 80.2371 62.3649 78.8732 61.5232 78.0314L55.7773 72.2854Z" fill="white"/>
</svg>
