<svg width="68" height="68" viewBox="0 0 68 68" fill="none" xmlns="http://www.w3.org/2000/svg">
<path d="M64.7562 34.1872C64.7562 17.2011 50.9863 3.43115 34.0002 3.43115C17.0141 3.43115 3.24414 17.2011 3.24414 34.1872C3.24414 51.1733 17.0141 64.9433 34.0002 64.9433C50.9863 64.9433 64.7562 51.1733 64.7562 34.1872Z" fill="#E54E1D"/>
<path d="M64.7562 34.1872C64.7562 17.2011 50.9863 3.43115 34.0002 3.43115C17.0141 3.43115 3.24414 17.2011 3.24414 34.1872C3.24414 51.1733 17.0141 64.9433 34.0002 64.9433C50.9863 64.9433 64.7562 51.1733 64.7562 34.1872Z" stroke="white" stroke-width="0.544355"/>
<path d="M29.6455 42.8972V24.0263L47.0649 21.123V39.994" stroke="white" stroke-width="2.17742" stroke-linecap="round" stroke-linejoin="round"/>
<path d="M25.2904 47.2522C27.6955 47.2522 29.6452 45.3024 29.6452 42.8973C29.6452 40.4922 27.6955 38.5425 25.2904 38.5425C22.8853 38.5425 20.9355 40.4922 20.9355 42.8973C20.9355 45.3024 22.8853 47.2522 25.2904 47.2522Z" stroke="white" stroke-width="2.17742" stroke-linecap="round" stroke-linejoin="round"/>
<path d="M42.7093 44.3488C45.1144 44.3488 47.0642 42.3991 47.0642 39.994C47.0642 37.5889 45.1144 35.6392 42.7093 35.6392C40.3042 35.6392 38.3545 37.5889 38.3545 39.994C38.3545 42.3991 40.3042 44.3488 42.7093 44.3488Z" stroke="white" stroke-width="2.17742" stroke-linecap="round" stroke-linejoin="round"/>
</svg>
