<svg width="68" height="68" viewBox="0 0 68 68" fill="none" xmlns="http://www.w3.org/2000/svg">
<path d="M65.0062 34.1877C65.0062 17.2016 51.2363 3.43164 34.2502 3.43164C17.2641 3.43164 3.49414 17.2016 3.49414 34.1877C3.49414 51.1738 17.2641 64.9437 34.2502 64.9437C51.2363 64.9437 65.0062 51.1738 65.0062 34.1877Z" fill="#E54E1D"/>
<path d="M65.0062 34.1877C65.0062 17.2016 51.2363 3.43164 34.2502 3.43164C17.2641 3.43164 3.49414 17.2016 3.49414 34.1877C3.49414 51.1738 17.2641 64.9437 34.2502 64.9437C51.2363 64.9437 65.0062 51.1738 65.0062 34.1877Z" stroke="white" stroke-width="0.544355"/>
<path d="M48.5386 34.1873C48.5386 37.977 47.0331 41.6116 44.3533 44.2913C41.6736 46.9711 38.039 48.4766 34.2493 48.4766C30.4595 48.4766 26.825 46.9711 24.1452 44.2913C21.4654 41.6116 19.96 37.977 19.96 34.1873C19.96 33.9166 20.0675 33.657 20.2589 33.4656C20.4503 33.2741 20.7099 33.1666 20.9806 33.1666C21.2513 33.1666 21.5109 33.2741 21.7023 33.4656C21.8938 33.657 22.0013 33.9166 22.0013 34.1873C21.9972 36.9207 22.9062 39.5771 24.584 41.735C26.2619 43.8929 28.6124 45.4285 31.2625 46.0982C33.9126 46.7678 36.7104 46.5331 39.212 45.4314C41.7135 44.3296 43.7753 42.4238 45.0702 40.0166C46.3651 37.6094 46.8189 34.8386 46.3595 32.1441C45.9001 29.4496 44.5539 26.9857 42.5345 25.1435C40.5152 23.3013 37.9383 22.1864 35.2131 21.9757C32.4878 21.7651 29.7702 22.4707 27.4917 23.9806H28.1253C28.396 23.9806 28.6556 24.0882 28.847 24.2796C29.0384 24.471 29.1459 24.7306 29.1459 25.0013C29.1459 25.272 29.0384 25.5316 28.847 25.723C28.6556 25.9144 28.396 26.0219 28.1253 26.0219H25.0633C24.9292 26.022 24.7965 25.9957 24.6726 25.9444C24.5487 25.8931 24.4362 25.818 24.3414 25.7232C24.2466 25.6284 24.1714 25.5158 24.1202 25.392C24.0689 25.2681 24.0425 25.1353 24.0426 25.0013V21.9393C24.0426 21.6686 24.1502 21.409 24.3416 21.2176C24.533 21.0262 24.7926 20.9186 25.0633 20.9186C25.334 20.9186 25.5936 21.0262 25.785 21.2176C25.9764 21.409 26.084 21.6686 26.084 21.9393V22.4638C28.2261 20.9708 30.7365 20.0934 33.3423 19.927C35.9481 19.7606 38.5497 20.3116 40.8644 21.52C43.179 22.7285 45.1182 24.5482 46.4712 26.7815C47.8242 29.0148 48.5392 31.5761 48.5386 34.1873ZM43.4353 34.1873C43.4353 36.0041 42.8965 37.7801 41.8871 39.2907C40.8778 40.8014 39.4431 41.9788 37.7646 42.674C36.0861 43.3693 34.2391 43.5512 32.4572 43.1968C30.6753 42.8423 29.0385 41.9674 27.7538 40.6827C26.4691 39.3981 25.5942 37.7613 25.2398 35.9794C24.8854 34.1975 25.0673 32.3505 25.7625 30.6719C26.4578 28.9934 27.6352 27.5588 29.1458 26.5494C30.6564 25.54 32.4325 25.0013 34.2493 25.0013C36.6847 25.0039 39.0197 25.9726 40.7418 27.6947C42.4639 29.4169 43.4326 31.7518 43.4353 34.1873ZM37.8774 35.3794L35.2699 33.6411V29.0839C35.2699 28.8132 35.1624 28.5536 34.971 28.3622C34.7796 28.1708 34.52 28.0633 34.2493 28.0633C33.9786 28.0633 33.719 28.1708 33.5276 28.3622C33.3361 28.5536 33.2286 28.8132 33.2286 29.0839V34.1873C33.2286 34.3553 33.2701 34.5207 33.3494 34.6688C33.4287 34.817 33.5433 34.9432 33.6831 35.0365L36.7451 37.0778C36.9704 37.2248 37.2445 37.277 37.508 37.2229C37.7715 37.1689 38.003 37.0131 38.1522 36.7893C38.3014 36.5655 38.3563 36.2918 38.3048 36.0278C38.2533 35.7638 38.0998 35.5308 37.8774 35.3794Z" fill="white"/>
</svg>
