<svg width="120" height="120" viewBox="0 0 120 120" fill="none" xmlns="http://www.w3.org/2000/svg">
<g id="binoculars">
<path id="Vector" d="M114.677 59.9999C114.677 29.8024 90.1972 5.32251 59.9997 5.32251C29.8022 5.32251 5.32227 29.8024 5.32227 59.9999C5.32227 90.1974 29.8022 114.677 59.9997 114.677C90.1972 114.677 114.677 90.1974 114.677 59.9999Z" fill="#E54E1D"/>
<path id="Vector_2" d="M75.0267 58.4275C72.1816 58.4275 69.8809 60.7392 69.8809 63.5734C69.8809 64.2514 70.4365 64.807 71.1145 64.807C71.7925 64.807 72.3482 64.2514 72.3482 63.5734C72.3482 62.0952 73.5596 60.8838 75.038 60.8838C75.7158 60.8838 76.2716 60.3281 76.2716 59.6501C76.2604 58.9721 75.7047 58.4275 75.0267 58.4275Z" fill="white"/>
<path id="Vector_3" d="M83.4179 54.8819C83.1179 54.5929 82.7954 54.315 82.4622 54.0483L77.9053 50.1804C76.1492 48.9357 74.0596 48.1466 71.7924 47.991L72.0369 48.2354L69.2693 45.4569H69.2471C68.4802 44.7566 67.4467 44.3232 66.3241 44.3232C64.3902 44.3232 62.7564 45.5792 62.2007 47.324C61.6449 46.9685 61.0004 46.7573 60.3001 46.7128C60.189 46.7018 60.0667 46.7018 59.9556 46.7018C59.1665 46.7018 58.4329 46.9352 57.8105 47.324C57.2438 45.5902 55.6098 44.3343 53.6871 44.3343C52.5645 44.3343 51.542 44.7566 50.764 45.4681H50.7419L47.9744 48.2467L48.2188 48.002C45.9516 48.1576 43.851 48.958 42.106 50.1916L37.5491 54.0593C37.2158 54.315 36.8933 54.5929 36.5933 54.8929C34.3149 57.0936 32.9033 60.1723 32.9033 63.5844C32.9033 70.2529 38.3271 75.6767 44.9956 75.6767C51.153 75.6767 56.2545 71.042 56.9881 65.0738C57.8773 65.5849 58.9108 65.8739 60.0001 65.8739C61.1004 65.8739 62.1229 65.5849 63.0121 65.0738C63.7567 71.031 68.847 75.6657 75.0044 75.6657C81.6729 75.6657 87.0967 70.2419 87.0967 63.5732C87.1079 60.1611 85.6964 57.0825 83.4179 54.8819ZM44.9956 71.8311C40.4387 71.8311 36.7489 68.1413 36.7489 63.5844C36.7489 59.0275 40.4387 55.3375 44.9956 55.3375C49.5525 55.3375 53.2425 59.0275 53.2425 63.5844C53.2536 68.1301 49.5525 71.8311 44.9956 71.8311ZM60.0111 62.4506C58.533 62.4506 57.3326 61.2504 57.3326 59.7721C57.3326 58.294 58.533 57.0936 60.0111 57.0936C61.4894 57.0936 62.6896 58.294 62.6896 59.7721C62.6896 61.2504 61.4894 62.4506 60.0111 62.4506ZM75.0266 71.8311C70.4697 71.8311 66.7797 68.1413 66.7797 63.5844C66.7797 59.0275 70.4697 55.3375 75.0266 55.3375C79.5835 55.3375 83.2735 59.0275 83.2735 63.5844C83.2735 68.1301 79.5835 71.8311 75.0266 71.8311Z" fill="white"/>
<path id="Vector_4" d="M44.9955 58.4275C42.1503 58.4275 39.8496 60.7392 39.8496 63.5734C39.8496 64.2514 40.4053 64.807 41.0833 64.807C41.7613 64.807 42.317 64.2514 42.317 63.5734C42.317 62.0952 43.5284 60.8838 45.0067 60.8838C45.6847 60.8838 46.2404 60.3281 46.2404 59.6501C46.2292 58.9721 45.6735 58.4275 44.9955 58.4275Z" fill="white"/>
<path id="Vector_5" d="M114.677 59.9999C114.677 29.8024 90.1972 5.32251 59.9997 5.32251C29.8022 5.32251 5.32227 29.8024 5.32227 59.9999C5.32227 90.1974 29.8022 114.677 59.9997 114.677C90.1972 114.677 114.677 90.1974 114.677 59.9999Z" stroke="white" stroke-width="0.5"/>
</g>
</svg>
