<svg width="120" height="120" viewBox="0 0 120 120" fill="none" xmlns="http://www.w3.org/2000/svg">
<g id="Camera">
<path id="Vector" d="M114.677 59.9999C114.677 29.8024 90.1972 5.32251 59.9997 5.32251C29.8022 5.32251 5.32227 29.8024 5.32227 59.9999C5.32227 90.1974 29.8022 114.677 59.9997 114.677C90.1972 114.677 114.677 90.1974 114.677 59.9999Z" fill="#E54E1D"/>
<g id="Clip path group">
<mask id="mask0_2444_17654" style="mask-type:luminance" maskUnits="userSpaceOnUse" x="32" y="32" width="56" height="56">
<g id="clip0_1871_7727">
<path id="Vector_2" d="M87.0969 32.9033H32.9033V87.0969H87.0969V32.9033Z" fill="white"/>
</g>
</mask>
<g mask="url(#mask0_2444_17654)">
<g id="Group">
<path id="Vector_3" d="M59.9998 66.7742C63.7411 66.7742 66.774 63.7413 66.774 60C66.774 56.2587 63.7411 53.2258 59.9998 53.2258C56.2585 53.2258 53.2256 56.2587 53.2256 60C53.2256 63.7413 56.2585 66.7742 59.9998 66.7742Z" fill="white"/>
<path id="Vector_4" d="M78.0641 41.9357H70.9059L68.106 38.8874C67.2705 37.9616 66.0511 37.4197 64.7867 37.4197H55.2124C53.948 37.4197 52.7286 37.9616 51.8704 38.8874L49.093 41.9357H41.935C39.4512 41.9357 37.4189 43.968 37.4189 46.452V73.5488C37.4189 76.0326 39.4512 78.0648 41.935 78.0648H78.0641C80.5479 78.0648 82.5802 76.0326 82.5802 73.5488V46.452C82.5802 43.968 80.5479 41.9357 78.0641 41.9357ZM59.9995 71.2906C53.7672 71.2906 48.7092 66.2326 48.7092 60.0004C48.7092 53.7681 53.7672 48.7099 59.9995 48.7099C66.2317 48.7099 71.2899 53.7681 71.2899 60.0004C71.2899 66.2326 66.2317 71.2906 59.9995 71.2906Z" fill="white"/>
</g>
</g>
</g>
<path id="Vector_5" d="M114.677 59.9999C114.677 29.8024 90.1972 5.32251 59.9997 5.32251C29.8022 5.32251 5.32227 29.8024 5.32227 59.9999C5.32227 90.1974 29.8022 114.677 59.9997 114.677C90.1972 114.677 114.677 90.1974 114.677 59.9999Z" stroke="white" stroke-width="0.5"/>
</g>
</svg>
