<svg width="68" height="68" viewBox="0 0 68 68" fill="none" xmlns="http://www.w3.org/2000/svg">
<g clip-path="url(#clip0_2587_20569)">
<path d="M34 67.9375C52.6397 67.9375 67.75 52.8272 67.75 34.1875C67.75 15.5479 52.6397 0.4375 34 0.4375C15.3604 0.4375 0.25 15.5479 0.25 34.1875C0.25 52.8272 15.3604 67.9375 34 67.9375Z" fill="black" fill-opacity="0.5"/>
<path d="M20.942 39.4107H15.7188V52.4688H28.7768V47.2455H20.942V39.4107ZM15.7188 28.9643H20.942V21.1295H28.7768V15.9062H15.7188V28.9643ZM47.058 47.2455H39.2232V52.4688H52.2812V39.4107H47.058V47.2455ZM39.2232 15.9062V21.1295H47.058V28.9643H52.2812V15.9062H39.2232Z" fill="white"/>
</g>
<defs>
<clipPath id="clip0_2587_20569">
<rect width="67.5" height="67.5" fill="white" transform="translate(0.25 0.4375)"/>
</clipPath>
</defs>
</svg>
