<svg width="68" height="68" viewBox="0 0 68 68" fill="none" xmlns="http://www.w3.org/2000/svg">
<path d="M64.7562 34.1877C64.7562 17.2016 50.9862 3.43164 34.0002 3.43164C17.0141 3.43164 3.24414 17.2016 3.24414 34.1877C3.24414 51.1737 17.0141 64.9437 34.0002 64.9437C50.9862 64.9437 64.7562 51.1737 64.7562 34.1877Z" fill="#E54E1D"/>
<path d="M64.7562 34.1877C64.7562 17.2016 50.9862 3.43164 34.0002 3.43164C17.0141 3.43164 3.24414 17.2016 3.24414 34.1877C3.24414 51.1737 17.0141 64.9437 34.0002 64.9437C50.9862 64.9437 64.7562 51.1737 64.7562 34.1877Z" stroke="white" stroke-width="0.544355"/>
<path d="M37.2909 26.8841V47.5908H30.8224V26.8841H37.2909ZM30.4397 21.5447C30.4397 20.6261 30.7714 19.8734 31.4348 19.2865C32.0982 18.6996 32.9594 18.4062 34.0184 18.4062C35.0773 18.4062 35.9385 18.6996 36.6019 19.2865C37.2654 19.8734 37.5971 20.6261 37.5971 21.5447C37.5971 22.4633 37.2654 23.2161 36.6019 23.8029C35.9385 24.3898 35.0773 24.6833 34.0184 24.6833C32.9594 24.6833 32.0982 24.3898 31.4348 23.8029C30.7714 23.2161 30.4397 22.4633 30.4397 21.5447Z" fill="white"/>
</svg>
