<svg width="68" height="68" viewBox="0 0 68 68" fill="none" xmlns="http://www.w3.org/2000/svg">
<g clip-path="url(#clip0_2587_20541)">
<path d="M34 67.9375C52.6397 67.9375 67.75 52.8272 67.75 34.1875C67.75 15.5479 52.6397 0.4375 34 0.4375C15.3604 0.4375 0.25 15.5479 0.25 34.1875C0.25 52.8272 15.3604 67.9375 34 67.9375Z" fill="black" fill-opacity="0.5"/>
<g clip-path="url(#clip1_2587_20541)">
<path d="M23.905 35.4189H22.0888C21.6123 35.4189 21.1822 35.7026 20.9937 36.1395L15.9658 47.8469L27.9064 41.7483C26.4771 39.7705 25.0628 37.589 23.905 35.4189Z" fill="white"/>
<path d="M47.0064 36.1395C46.8183 35.7026 46.3878 35.4189 45.9117 35.4189H44.0954C41.909 39.5162 38.7236 43.7503 36.6973 46.0797C35.2722 47.7143 32.7267 47.7124 31.3038 46.0797C31.1583 45.9126 30.3985 45.0329 29.352 43.6801L27.1992 44.7801L35.3424 52.9075L50.7721 44.9084L47.0064 36.1395Z" fill="white"/>
<path d="M14.4968 51.2685L13.8473 52.781C13.5111 53.5637 14.0871 54.4378 14.9421 54.4378H32.4275C32.5369 54.3565 32.5382 54.3615 33.1252 54.0571L24.9701 45.9189L14.4968 51.2685Z" fill="white"/>
<path d="M54.1526 52.7807L51.7128 47.0996L37.5586 54.4375H53.0579C53.911 54.4375 54.4894 53.5649 54.1526 52.7807Z" fill="white"/>
<path d="M35.1909 24.6418C35.1909 23.9861 34.6564 23.4531 33.9998 23.4531C33.3428 23.4531 32.8086 23.9861 32.8086 24.6418C32.8086 25.2972 33.3428 25.8305 33.9998 25.8305C34.6564 25.8305 35.1909 25.2972 35.1909 24.6418Z" fill="white"/>
<path d="M34.8992 44.4405C35.3003 43.9801 44.7205 33.0832 44.7205 25.5927C44.7205 10.1468 23.2803 9.95835 23.2803 25.5927C23.2803 33.0832 32.7005 43.9801 33.1015 44.4405C33.5765 44.9852 34.4253 44.9846 34.8992 44.4405ZM30.4269 24.6419C30.4269 22.6755 32.03 21.0758 34.0004 21.0758C35.9705 21.0758 37.5736 22.6755 37.5736 24.6419C37.5736 26.608 35.9705 28.2076 34.0004 28.2076C32.03 28.2076 30.4269 26.608 30.4269 24.6419Z" fill="white"/>
</g>
</g>
<defs>
<clipPath id="clip0_2587_20541">
<rect width="67.5" height="67.5" fill="white" transform="translate(0.25 0.4375)"/>
</clipPath>
<clipPath id="clip1_2587_20541">
<rect width="40.5" height="40.5" fill="white" transform="translate(13.75 13.9375)"/>
</clipPath>
</defs>
</svg>
