<svg width="68" height="68" viewBox="0 0 68 68" fill="none" xmlns="http://www.w3.org/2000/svg">
<path d="M64.5062 34.1877C64.5062 17.2016 50.7363 3.43164 33.7502 3.43164C16.7641 3.43164 2.99414 17.2016 2.99414 34.1877C2.99414 51.1738 16.7641 64.9437 33.7502 64.9437C50.7363 64.9437 64.5062 51.1738 64.5062 34.1877Z" fill="#E54E1D"/>
<path d="M64.5062 34.1877C64.5062 17.2016 50.7363 3.43164 33.7502 3.43164C16.7641 3.43164 2.99414 17.2016 2.99414 34.1877C2.99414 51.1738 16.7641 64.9437 33.7502 64.9437C50.7363 64.9437 64.5062 51.1738 64.5062 34.1877Z" stroke="white" stroke-width="0.5"/>
<path d="M45.1816 35.1912C44.9818 37.3533 44.1704 39.4138 42.8423 41.1315C41.5142 42.8492 39.7243 44.1532 37.6822 44.8909C35.64 45.6285 33.43 45.7693 31.3108 45.2967C29.1916 44.8242 27.2507 43.7579 25.7154 42.2226C24.1801 40.6872 23.1137 38.7464 22.6412 36.6271C22.1686 34.5079 22.3094 32.2979 23.0471 30.2558C23.7847 28.2136 25.0887 26.4238 26.8064 25.0957C28.5242 23.7676 30.5846 22.9562 32.7467 22.7563C31.4809 24.4689 30.8718 26.5788 31.0301 28.7025C31.1885 30.8262 32.1038 32.8224 33.6097 34.3283C35.1155 35.8341 37.1118 36.7494 39.2354 36.9078C41.3591 37.0662 43.4691 36.4571 45.1816 35.1912Z" stroke="white" stroke-width="2" stroke-linecap="round" stroke-linejoin="round"/>
</svg>
