<svg width="68" height="68" viewBox="0 0 68 68" fill="none" xmlns="http://www.w3.org/2000/svg">
<g id="map" clip-path="url(#clip0_2587_20561)">
<path id="Vector" d="M34 67.9375C52.6397 67.9375 67.75 52.8272 67.75 34.1875C67.75 15.5479 52.6397 0.4375 34 0.4375C15.3604 0.4375 0.25 15.5479 0.25 34.1875C0.25 52.8272 15.3604 67.9375 34 67.9375Z" fill="black" fill-opacity="0.5"/>
<path id="Vector_2" d="M31.9769 20.2671L21.8508 28.3679H13.75V40.5192H21.8508L31.9769 48.6201V20.2671Z" fill="white"/>
<path id="Vector_3" d="M48.3199 20.125C52.1166 23.9228 54.2494 29.0731 54.2494 34.4433C54.2494 39.8134 52.1166 44.9637 48.3199 48.7615M41.1709 27.274C43.0692 29.1729 44.1357 31.7481 44.1357 34.4331C44.1357 37.1182 43.0692 39.6933 41.1709 41.5923" stroke="white" stroke-width="2.8125" stroke-linecap="round" stroke-linejoin="round"/>
</g>
<defs>
<clipPath id="clip0_2587_20561">
<rect width="67.5" height="67.5" fill="white" transform="translate(0.25 0.4375)"/>
</clipPath>
</defs>
</svg>
