<svg width="68" height="68" viewBox="0 0 68 68" fill="none" xmlns="http://www.w3.org/2000/svg">
<path d="M64.5062 34.1877C64.5062 17.2016 50.7363 3.43164 33.7502 3.43164C16.7641 3.43164 2.99414 17.2016 2.99414 34.1877C2.99414 51.1738 16.7641 64.9437 33.7502 64.9437C50.7363 64.9437 64.5062 51.1738 64.5062 34.1877Z" fill="#E54E1D"/>
<path d="M64.5062 34.1877C64.5062 17.2016 50.7363 3.43164 33.7502 3.43164C16.7641 3.43164 2.99414 17.2016 2.99414 34.1877C2.99414 51.1738 16.7641 64.9437 33.7502 64.9437C50.7363 64.9437 64.5062 51.1738 64.5062 34.1877Z" stroke="white" stroke-width="0.5"/>
<g clip-path="url(#clip0_2574_17345)">
<path d="M48.7301 21.6485L46.3485 19.267C45.9998 18.9182 45.4343 18.9182 45.0855 19.267C44.7367 19.6157 44.7367 20.1812 45.0855 20.53L45.9425 21.387L32.4994 21.3869C28.7621 21.3869 25.2486 22.8423 22.6059 25.485C19.9632 28.1276 18.5078 31.6413 18.5078 35.3785C18.5078 39.1158 19.9632 42.6294 22.6059 45.2721C25.2486 47.9148 28.7621 49.3701 32.4994 49.3701C32.9927 49.3701 33.3925 48.9703 33.3925 48.4771C33.3925 47.9838 32.9927 47.584 32.4994 47.584C25.7693 47.584 20.294 42.1087 20.294 35.3785C20.294 32.1183 21.5635 29.0533 23.8689 26.7479C26.1742 24.4427 29.2392 23.1731 32.4994 23.1731H45.9425L45.0855 24.0301C44.7367 24.3788 44.7367 24.9443 45.0855 25.2931C45.2599 25.4674 45.4885 25.5546 45.717 25.5546C45.9456 25.5546 46.1742 25.4674 46.3485 25.293L48.7301 22.9114C49.0789 22.5627 49.0789 21.9973 48.7301 21.6485Z" fill="white"/>
<path d="M45.5982 36.2715C46.0914 36.2715 46.4912 35.8717 46.4912 35.3784C46.4912 34.8852 46.0914 34.4854 45.5982 34.4854C45.1049 34.4854 44.7051 34.8852 44.7051 35.3784C44.7051 35.8717 45.1049 36.2715 45.5982 36.2715Z" fill="white"/>
<path d="M45.9938 39.0071C46.124 38.5316 45.8441 38.0406 45.3686 37.9104C44.8931 37.7802 44.4021 38.0601 44.2719 38.5356C44.1417 39.011 44.4216 39.502 44.8971 39.6323C45.3725 39.7625 45.8636 39.4826 45.9938 39.0071Z" fill="white"/>
<path d="M44.2899 41.1545C43.8628 40.9079 43.3166 41.0542 43.07 41.4813C42.8234 41.9085 42.9697 42.4547 43.3969 42.7013C43.824 42.9479 44.3702 42.8015 44.6168 42.3744C44.8634 41.9473 44.7171 41.4011 44.2899 41.1545Z" fill="white"/>
<path d="M41.1297 44.0091C40.781 44.3579 40.781 44.9234 41.1297 45.2721C41.4785 45.6209 42.044 45.6209 42.3927 45.2721C42.7415 44.9234 42.7415 44.3579 42.3927 44.0091C42.044 43.6604 41.4785 43.6604 41.1297 44.0091Z" fill="white"/>
<path d="M39.0488 47.617C39.5421 47.6155 39.9407 47.2145 39.9392 46.7212C39.9378 46.228 39.5367 45.8293 39.0435 45.8308C38.5502 45.8323 38.1516 46.2333 38.1531 46.7266C38.1545 47.2198 38.5556 47.6185 39.0488 47.617Z" fill="white"/>
<path d="M35.6583 47.1679C35.1818 47.2955 34.8991 47.7852 35.0267 48.2616C35.1544 48.7381 35.6441 49.0208 36.1205 48.8932C36.597 48.7655 36.8797 48.2758 36.7521 47.7994C36.6244 47.323 36.1347 47.0402 35.6583 47.1679Z" fill="white"/>
<path d="M41.0984 35.1405C41.0984 36.8362 40.5955 38.4938 39.6534 39.9037C38.7114 41.3136 37.3724 42.4125 35.8057 43.0614C34.2391 43.7104 32.5153 43.8801 30.8521 43.5493C29.189 43.2185 27.6614 42.402 26.4623 41.2029C25.2633 40.0039 24.4467 38.4762 24.1159 36.8131C23.7851 35.15 23.9549 33.4261 24.6038 31.8595C25.2527 30.2929 26.3516 28.9539 27.7615 28.0118C29.1715 27.0697 30.8291 26.5669 32.5248 26.5669C34.7979 26.5694 36.9771 27.4735 38.5845 29.0808C40.1918 30.6881 41.0959 32.8674 41.0984 35.1405ZM35.911 36.2531L33.4774 34.6307V30.3774C33.4774 30.1247 33.377 29.8824 33.1984 29.7038C33.0197 29.5251 32.7774 29.4248 32.5248 29.4248C32.2721 29.4248 32.0298 29.5251 31.8512 29.7038C31.6725 29.8824 31.5721 30.1247 31.5721 30.3774V35.1405C31.5722 35.2973 31.6109 35.4517 31.6849 35.5899C31.7589 35.7282 31.8659 35.8461 31.9964 35.9331L34.8542 37.8383C35.0644 37.9755 35.3203 38.0242 35.5663 37.9738C35.8122 37.9234 36.0283 37.7779 36.1675 37.569C36.3068 37.3601 36.358 37.1047 36.3099 36.8583C36.2619 36.6119 36.1185 36.3944 35.911 36.2531Z" fill="white"/>
</g>
<defs>
<clipPath id="clip0_2574_17345">
<rect width="30.4839" height="30.4839" fill="white" transform="translate(18.5078 18.9458)"/>
</clipPath>
</defs>
</svg>
