<svg width="120" height="120" viewBox="0 0 120 120" fill="none" xmlns="http://www.w3.org/2000/svg">
<path d="M114.677 59.9999C114.677 29.8024 90.1972 5.32251 59.9997 5.32251C29.8022 5.32251 5.32227 29.8024 5.32227 59.9999C5.32227 90.1974 29.8022 114.677 59.9997 114.677C90.1972 114.677 114.677 90.1974 114.677 59.9999Z" fill="#E54E1D"/>
<path d="M59.9995 37.4197C47.5349 37.4197 37.4189 47.5359 37.4189 60.0004C37.4189 72.4649 47.5349 82.5809 59.9995 82.5809C72.464 82.5809 82.5802 72.4649 82.5802 60.0004C82.5802 47.5359 72.464 37.4197 59.9995 37.4197ZM55.4834 67.9035V52.097C55.4834 51.1713 56.5446 50.6294 57.2898 51.1939L67.8351 59.0971C68.4448 59.5486 68.4448 60.4519 67.8351 60.9035L57.2898 68.8068C56.5446 69.3712 55.4834 68.8293 55.4834 67.9035Z" fill="white"/>
<path d="M114.677 59.9999C114.677 29.8024 90.1972 5.32251 59.9997 5.32251C29.8022 5.32251 5.32227 29.8024 5.32227 59.9999C5.32227 90.1974 29.8022 114.677 59.9997 114.677C90.1972 114.677 114.677 90.1974 114.677 59.9999Z" stroke="white" stroke-width="0.5"/>
</svg>
