<svg width="68" height="68" viewBox="0 0 68 68" fill="none" xmlns="http://www.w3.org/2000/svg">
<g clip-path="url(#clip0_2587_20554)">
<path d="M34 67.9375C52.6397 67.9375 67.75 52.8272 67.75 34.1875C67.75 15.5479 52.6397 0.4375 34 0.4375C15.3604 0.4375 0.25 15.5479 0.25 34.1875C0.25 52.8272 15.3604 67.9375 34 67.9375Z" fill="black" fill-opacity="0.5"/>
<path d="M34 21.8125C22.4575 21.8125 13.75 26.1663 13.75 31.9375C13.75 36.8987 20.2098 40.807 29.3627 41.8195L28.5122 42.6498C28.3225 42.838 28.1718 43.062 28.069 43.3088C27.9662 43.5555 27.9133 43.8201 27.9133 44.0875C27.9133 44.3548 27.9662 44.6195 28.069 44.8663C28.1718 45.113 28.3225 45.3371 28.5122 45.5252C28.7005 45.7151 28.9244 45.8657 29.1712 45.9686C29.418 46.0713 29.6827 46.1243 29.95 46.1243C30.2173 46.1243 30.482 46.0713 30.7288 45.9686C30.9755 45.8657 31.1995 45.7151 31.3878 45.5252L35.4377 41.4753C35.6221 41.2826 35.7666 41.0556 35.863 40.807C36.0655 40.314 36.0655 39.761 35.863 39.268C35.7666 39.0194 35.6221 38.7924 35.4377 38.5997L31.3878 34.5498C31.0065 34.1685 30.4893 33.9542 29.95 33.9542C29.4107 33.9542 28.8935 34.1685 28.5122 34.5498C28.1309 34.9311 27.9168 35.4482 27.9168 35.9875C27.9168 36.5267 28.1309 37.0439 28.5122 37.4253L28.7552 37.648C21.85 36.676 17.8 33.9625 17.8 31.9375C17.8 29.467 24.118 25.8625 34 25.8625C43.882 25.8625 50.2 29.467 50.2 31.9375C50.2 33.6182 47.2637 35.9875 41.6747 37.2025C41.4103 37.2532 41.1584 37.3561 40.9342 37.5054C40.7099 37.6546 40.5177 37.8469 40.3687 38.0713C40.2198 38.2958 40.117 38.5476 40.0666 38.8122C40.0161 39.0768 40.019 39.3487 40.075 39.6123C40.1303 39.8731 40.2366 40.1205 40.3877 40.3403C40.539 40.56 40.732 40.7477 40.9559 40.8926C41.1798 41.0374 41.4302 41.1366 41.6925 41.1846C41.9549 41.2324 42.2241 41.228 42.4847 41.1715C49.876 39.5515 54.25 36.109 54.25 31.9375C54.25 26.1663 45.5425 21.8125 34 21.8125Z" fill="white"/>
</g>
<defs>
<clipPath id="clip0_2587_20554">
<rect width="67.5" height="67.5" fill="white" transform="translate(0.25 0.4375)"/>
</clipPath>
</defs>
</svg>
