<svg width="120" height="120" viewBox="0 0 120 120" fill="none" xmlns="http://www.w3.org/2000/svg">
<g id="sensor_door">
<path id="Vector" d="M114.677 59.9999C114.677 29.8024 90.1972 5.32251 59.9997 5.32251C29.8022 5.32251 5.32227 29.8024 5.32227 59.9999C5.32227 90.1974 29.8022 114.677 59.9997 114.677C90.1972 114.677 114.677 90.1974 114.677 59.9999Z" fill="#E54E1D"/>
<g id="Clip path group">
<mask id="mask0_2444_17520" style="mask-type:luminance" maskUnits="userSpaceOnUse" x="32" y="32" width="56" height="56">
<g id="clip0_1871_7732">
<path id="Vector_2" d="M87.0969 32.9033H32.9033V87.0969H87.0969V32.9033Z" fill="white"/>
</g>
</mask>
<g mask="url(#mask0_2444_17520)">
<g id="Group">
<path id="Vector_3" d="M73.5486 37.4197H46.4518C43.9678 37.4197 41.9355 39.4519 41.9355 41.9357V78.0648C41.9355 80.5486 43.9678 82.5809 46.4518 82.5809H73.5486C76.0324 82.5809 78.0646 80.5486 78.0646 78.0648V41.9357C78.0646 39.4519 76.0324 37.4197 73.5486 37.4197ZM67.9034 63.3875C66.0292 63.3875 64.5163 61.8745 64.5163 60.0004C64.5163 58.1261 66.0292 56.6133 67.9034 56.6133C69.7775 56.6133 71.2904 58.1261 71.2904 60.0004C71.2904 61.8745 69.7775 63.3875 67.9034 63.3875Z" fill="white"/>
</g>
</g>
</g>
<path id="Vector_4" d="M114.677 59.9999C114.677 29.8024 90.1972 5.32251 59.9997 5.32251C29.8022 5.32251 5.32227 29.8024 5.32227 59.9999C5.32227 90.1974 29.8022 114.677 59.9997 114.677C90.1972 114.677 114.677 90.1974 114.677 59.9999Z" stroke="white" stroke-width="0.5"/>
</g>
</svg>
