<svg width="68" height="68" viewBox="0 0 68 68" fill="none" xmlns="http://www.w3.org/2000/svg">
<path d="M65.0062 34.1877C65.0062 17.2016 51.2363 3.43164 34.2502 3.43164C17.2641 3.43164 3.49414 17.2016 3.49414 34.1877C3.49414 51.1738 17.2641 64.9437 34.2502 64.9437C51.2363 64.9437 65.0062 51.1738 65.0062 34.1877Z" fill="#E54E1D"/>
<path d="M65.0062 34.1877C65.0062 17.2016 51.2363 3.43164 34.2502 3.43164C17.2641 3.43164 3.49414 17.2016 3.49414 34.1877C3.49414 51.1738 17.2641 64.9437 34.2502 64.9437C51.2363 64.9437 65.0062 51.1738 65.0062 34.1877Z" stroke="white" stroke-width="0.544355"/>
<g clip-path="url(#clip0_2587_20450)">
<path d="M34.2502 40.5385C37.7577 40.5385 40.601 37.6952 40.601 34.1877C40.601 30.6803 37.7577 27.8369 34.2502 27.8369C30.7428 27.8369 27.8994 30.6803 27.8994 34.1877C27.8994 37.6952 30.7428 40.5385 34.2502 40.5385Z" stroke="white" stroke-width="2.17742" stroke-linecap="round" stroke-linejoin="round"/>
<path d="M34.25 20.2158V22.7561" stroke="white" stroke-width="2.17742" stroke-linecap="round" stroke-linejoin="round"/>
<path d="M34.25 45.6191V48.1595" stroke="white" stroke-width="2.17742" stroke-linecap="round" stroke-linejoin="round"/>
<path d="M24.3682 24.3062L26.1718 26.1098" stroke="white" stroke-width="2.17742" stroke-linecap="round" stroke-linejoin="round"/>
<path d="M42.3281 42.2661L44.1318 44.0697" stroke="white" stroke-width="2.17742" stroke-linecap="round" stroke-linejoin="round"/>
<path d="M20.2783 34.188H22.8186" stroke="white" stroke-width="2.17742" stroke-linecap="round" stroke-linejoin="round"/>
<path d="M45.6816 34.188H48.222" stroke="white" stroke-width="2.17742" stroke-linecap="round" stroke-linejoin="round"/>
<path d="M24.3682 44.0697L26.1718 42.2661" stroke="white" stroke-width="2.17742" stroke-linecap="round" stroke-linejoin="round"/>
<path d="M42.3281 26.1098L44.1318 24.3062" stroke="white" stroke-width="2.17742" stroke-linecap="round" stroke-linejoin="round"/>
</g>
<defs>
<clipPath id="clip0_2587_20450">
<rect width="30.4839" height="30.4839" fill="white" transform="translate(19.0078 18.9458)"/>
</clipPath>
</defs>
</svg>
